@startuml
!includeurl https://raw.githubusercontent.com/plantuml/plantuml/refs/heads/master/src/main/resources/themes/puml-theme-amiga.puml

hide empty members

class app.core.core.assignees.jrpc_api <<(M, #9B59B6)>>

class app.core.core.activities.models <<(M, #9B59B6)>>

class app.core.core.activities.mappers <<(M, #9B59B6)>>

class app.infra.permissions <<(M, #1ABC9C)>>

class app.core.core.assignees.dto <<(M, #9B59B6)>>

class app.infra.http_clients <<(M, #1ABC9C)>>

class app.core.core.assignees.usecases <<(M, #9B59B6)>>

class app.infra.esb.base <<(M, #F39C12)>>

class app.core.core.activities.exceptions <<(M, #9B59B6)>>

class app.core.core.activities.http_api <<(M, #9B59B6)>>

class app.infra.database <<(M, #1ABC9C)>>

class app.infra.constants <<(M, #1ABC9C)>>

class app.core.core.activities.internal_api <<(M, #9B59B6)>>

class app.core.core.assignees.exceptions <<(M, #9B59B6)>>

class app.infra.esb.handler <<(M, #F39C12)>>

class app.infra.contextvars <<(M, #1ABC9C)>>

class app.core.core.activities.events <<(M, #9B59B6)>>

class app.infra.s3_client <<(M, #1ABC9C)>>

class app.core.core.activities.cursor <<(M, #9B59B6)>>

class app.core.core.assignees.models <<(M, #9B59B6)>>

class app.infra.esb.consumer <<(M, #F39C12)>>

class app.infra.esb.publisher <<(M, #F39C12)>>

class app.infra.esb.fstore_client <<(M, #F39C12)>>

class app.infra.repository <<(M, #1ABC9C)>>

class app.infra.sentry <<(M, #1ABC9C)>>

class app.core.core.activities.dto <<(M, #9B59B6)>>

class app.core.core.activities.constants <<(M, #9B59B6)>>

class app.infra.pagination <<(M, #1ABC9C)>>

class app.infra.esb.xml <<(M, #F39C12)>>

class app.core.core.assignees.mappers <<(M, #9B59B6)>>

class app.core.core.assignees.event_handlers <<(M, #9B59B6)>>

class app.core.core.assignees.abc <<(M, #9B59B6)>>

class app.core.core.activities.wf_document_approve_event <<(M, #9B59B6)>>

class app.core.core.activities.jrpc_api <<(M, #9B59B6)>>

class app.core.core.assignees.events <<(M, #9B59B6)>>

class app.infra.api_schema <<(M, #1ABC9C)>>

class app.core.core.activities.event_handlers <<(M, #9B59B6)>>

class app.core.core.activities.repositories <<(M, #9B59B6)>>

class app.core.core.activities.usecases <<(M, #9B59B6)>>

class app.infra.esb.monitoring <<(M, #F39C12)>>

class app.core.core.activities.wf_responses <<(M, #9B59B6)>>

class app.infra.esb.dispatcher <<(M, #F39C12)>>

class app.core.core.assignees.repositories <<(M, #9B59B6)>>
app.infra.http_clients -down--> app.infra.contextvars
app.core.core.activities.models -down--> app.core.core.activities.constants
app.core.core.assignees.mappers -down--> app.core.core.assignees.dto
app.core.core.activities.mappers -down--> app.core.core.activities.models
app.core.core.assignees.event_handlers -down--> app.core.core.assignees.usecases
app.core.core.assignees.jrpc_api -down--> app.core.core.assignees.exceptions
app.core.core.activities.usecases -down--> app.core.core.activities.mappers
app.infra.esb.consumer -down--> app.infra.esb.monitoring
app.infra.permissions -down--> app.infra.api_schema
app.core.core.activities.cursor -down--> app.core.core.activities.constants
app.core.core.assignees.jrpc_api -down--> app.core.core.assignees.usecases
app.core.core.activities.jrpc_api -down--> app.core.core.activities.cursor
app.core.core.activities.usecases -down--> app.core.core.activities.dto
app.infra.esb.consumer -down--> app.infra.esb.dispatcher
app.core.core.activities.usecases -down--> app.core.core.activities.cursor
app.infra.esb.dispatcher -down--> app.infra.esb.handler
app.core.core.assignees.abc -down--> app.core.core.assignees.models
app.core.core.assignees.usecases -down--> app.core.core.assignees.models
app.core.core.assignees.abc -down--> app.core.core.assignees.mappers
app.core.core.activities.event_handlers -down--> app.core.core.activities.exceptions
app.core.core.activities.repositories -down--> app.core.core.activities.events
app.core.core.activities.repositories -down--> app.core.core.activities.dto
app.infra.api_schema -down--> app.infra.contextvars
app.core.core.assignees.abc -down--> app.core.core.assignees.dto
app.core.core.assignees.usecases -down--> app.core.core.assignees.dto
app.core.core.activities.internal_api -down--> app.core.core.activities.cursor
app.core.core.activities.mappers -down--> app.core.core.activities.dto
app.core.core.assignees.usecases -down--> app.core.core.assignees.exceptions
app.core.core.assignees.usecases -down--> app.core.core.assignees.abc
app.core.core.activities.jrpc_api -down--> app.core.core.activities.exceptions
app.core.core.activities -down--> app.core.core.assignees
app.core.core.activities.usecases -down--> app.core.core.activities.exceptions
app.infra.esb.consumer -down--> app.infra.esb.handler
app.core.core.activities.jrpc_api -down--> app.core.core.activities.repositories
app.core.core.activities.event_handlers -down--> app.core.core.activities.usecases
app.core.core.activities.repositories -down--> app.core.core.activities.cursor
app.infra.esb -down--> app.infra.http_clients
app.core.core.activities.wf_document_approve_event -down--> app.core.core.activities.usecases
app.core.core.activities.jrpc_api -down--> app.core.core.activities.constants
app.core.core.activities.usecases -down--> app.core.core.activities.repositories
app.core.core.activities.usecases -down--> app.core.core.activities.models
app.core.core.activities.usecases -down--> app.core.core.activities.constants
app.infra.esb -down--> app.infra.contextvars
app.core.core.activities.wf_responses -down--> app.core.core.activities.constants
app.core -down--> app.infra
app.core.core.activities.http_api -down--> app.core.core.activities.repositories
app.core.core.activities.dto -down--> app.core.core.activities.constants
app.infra.esb.publisher -down--> app.infra.esb.base
app.core.core.activities.jrpc_api -down--> app.core.core.activities.usecases
app.core.core.activities.wf_responses -down--> app.core.core.activities.usecases
app.core.core.activities.internal_api -down--> app.core.core.activities.jrpc_api
app.core.core.activities.internal_api -down--> app.core.core.activities.constants
app.infra.repository -down--> app.infra.database
app.infra.esb.consumer -down--> app.infra.esb.base
app.core.core.assignees.repositories -down--> app.core.core.assignees.models
app.core.core.activities.http_api -down--> app.core.core.activities.usecases
app.infra.pagination -down--> app.infra.api_schema
app.core.core.assignees.abc -down--> app.core.core.assignees.repositories
app.core.core.assignees.mappers -down--> app.core.core.assignees.models
app.core.core.activities.repositories -down--> app.core.core.activities.exceptions
app.infra.esb.dispatcher -down--> app.infra.esb.monitoring
app.core.core.activities.internal_api -down--> app.core.core.activities.usecases
app.core.core.activities.jrpc_api -down--> app.core.core.activities.dto
app.core.core.assignees.repositories -down--> app.core.core.assignees.events
app.infra.permissions -down--> app.infra.contextvars
app.core.core.assignees.usecases -down--> app.core.core.assignees.repositories
app.core.core.activities.repositories -down--> app.core.core.activities.models
app.core.core.activities.repositories -down--> app.core.core.activities.constants
@enduml

